<?xml version="1.0" encoding="UTF-8" standalone="no"?>
<svg
   inkscape:export-ydpi="576"
   inkscape:export-xdpi="576"
   inkscape:export-filename="D:\project oktober adnan\Solid(export)\PNG\12 - Sunset.png"
   sodipodi:docname="13 - Autumn.svg"
   inkscape:version="1.1.1 (1:1.1+202109281943+c3084ef5ed)"
   id="svg831"
   version="1.1"
   viewBox="0 0 22.577778 22.577778"
   height="64pt"
   width="64pt"
   xmlns:inkscape="http://www.inkscape.org/namespaces/inkscape"
   xmlns:sodipodi="http://sodipodi.sourceforge.net/DTD/sodipodi-0.dtd"
   xmlns="http://www.w3.org/2000/svg"
   xmlns:svg="http://www.w3.org/2000/svg"
   xmlns:rdf="http://www.w3.org/1999/02/22-rdf-syntax-ns#"
   xmlns:cc="http://creativecommons.org/ns#"
   xmlns:dc="http://purl.org/dc/elements/1.1/">
  <defs
     id="defs825">
    <pattern
       y="0"
       x="0"
       height="6"
       width="6"
       patternUnits="userSpaceOnUse"
       id="EMFhbasepattern" />
    <pattern
       y="0"
       x="0"
       height="6"
       width="6"
       patternUnits="userSpaceOnUse"
       id="EMFhbasepattern-9" />
    <pattern
       y="0"
       x="0"
       height="6"
       width="6"
       patternUnits="userSpaceOnUse"
       id="EMFhbasepattern-0" />
    <pattern
       y="0"
       x="0"
       height="6"
       width="6"
       patternUnits="userSpaceOnUse"
       id="EMFhbasepattern-7" />
    <pattern
       y="0"
       x="0"
       height="6"
       width="6"
       patternUnits="userSpaceOnUse"
       id="EMFhbasepattern-2" />
    <pattern
       y="0"
       x="0"
       height="6"
       width="6"
       patternUnits="userSpaceOnUse"
       id="EMFhbasepattern-98" />
    <pattern
       y="0"
       x="0"
       height="6"
       width="6"
       patternUnits="userSpaceOnUse"
       id="EMFhbasepattern-6" />
    <pattern
       y="0"
       x="0"
       height="6"
       width="6"
       patternUnits="userSpaceOnUse"
       id="EMFhbasepattern-01" />
    <pattern
       y="0"
       x="0"
       height="6"
       width="6"
       patternUnits="userSpaceOnUse"
       id="EMFhbasepattern-07" />
    <pattern
       y="0"
       x="0"
       height="6"
       width="6"
       patternUnits="userSpaceOnUse"
       id="EMFhbasepattern-8" />
    <pattern
       y="0"
       x="0"
       height="6"
       width="6"
       patternUnits="userSpaceOnUse"
       id="EMFhbasepattern-4" />
    <pattern
       y="0"
       x="0"
       height="6"
       width="6"
       patternUnits="userSpaceOnUse"
       id="EMFhbasepattern-40" />
    <pattern
       y="0"
       x="0"
       height="6"
       width="6"
       patternUnits="userSpaceOnUse"
       id="EMFhbasepattern-08" />
    <pattern
       y="0"
       x="0"
       height="6"
       width="6"
       patternUnits="userSpaceOnUse"
       id="EMFhbasepattern-04" />
    <pattern
       y="0"
       x="0"
       height="6"
       width="6"
       patternUnits="userSpaceOnUse"
       id="EMFhbasepattern-014" />
    <pattern
       y="0"
       x="0"
       height="6"
       width="6"
       patternUnits="userSpaceOnUse"
       id="EMFhbasepattern-27" />
    <pattern
       y="0"
       x="0"
       height="6"
       width="6"
       patternUnits="userSpaceOnUse"
       id="EMFhbasepattern-09" />
    <pattern
       y="0"
       x="0"
       height="6"
       width="6"
       patternUnits="userSpaceOnUse"
       id="EMFhbasepattern-5" />
    <pattern
       y="0"
       x="0"
       height="6"
       width="6"
       patternUnits="userSpaceOnUse"
       id="EMFhbasepattern-018" />
  </defs>
  <sodipodi:namedview
     inkscape:lockguides="true"
     inkscape:document-rotation="0"
     inkscape:snap-global="true"
     inkscape:snap-nodes="false"
     inkscape:bbox-nodes="true"
     inkscape:snap-bbox="true"
     showguides="true"
     inkscape:snap-midpoints="true"
     inkscape:snap-smooth-nodes="true"
     inkscape:snap-intersection-paths="true"
     inkscape:object-paths="true"
     inkscape:showpageshadow="false"
     inkscape:pagecheckerboard="true"
     inkscape:window-maximized="1"
     inkscape:window-y="31"
     inkscape:window-x="0"
     inkscape:window-height="705"
     inkscape:window-width="1366"
     units="pt"
     showgrid="false"
     inkscape:current-layer="layer1"
     inkscape:document-units="pt"
     inkscape:cy="46.965174"
     inkscape:cx="53.253731"
     inkscape:zoom="6.28125"
     inkscape:pageshadow="2"
     inkscape:pageopacity="0.0"
     borderopacity="1.0"
     bordercolor="#666666"
     pagecolor="#ffffff"
     id="base">
    <inkscape:grid
       id="grid1378"
       type="xygrid" />
    <sodipodi:guide
       inkscape:locked="true"
       id="guide1380"
       orientation="78.000048,0"
       position="0.97013831,21.607643" />
    <sodipodi:guide
       inkscape:locked="true"
       id="guide1382"
       orientation="0,78.000005"
       position="0.97013831,0.97013129" />
    <sodipodi:guide
       inkscape:locked="true"
       id="guide1384"
       orientation="-78.000048,0"
       position="21.607639,0.97013129" />
    <sodipodi:guide
       inkscape:locked="true"
       id="guide1386"
       orientation="0,-78.000005"
       position="21.607639,21.607643" />
  </sodipodi:namedview>
  <metadata
     id="metadata828">
    <rdf:RDF>
      <cc:Work
         rdf:about="">
        <dc:format>image/svg+xml</dc:format>
        <dc:type
           rdf:resource="http://purl.org/dc/dcmitype/StillImage" />
        <dc:title />
      </cc:Work>
    </rdf:RDF>
  </metadata>
  <g
     transform="translate(0,-274.42223)"
     id="layer1"
     inkscape:groupmode="layer"
     inkscape:label="Icon">
    <path
       d="m 13.086305,276.69793 c -0.48364,-0.22835 -1.071333,0.0366 -1.220592,0.55021 -0.0027,0.009 -0.0051,0.0177 -0.0071,0.0267 0,0 -0.02892,0.96558 0.341038,1.9423 -0.204078,0.18947 -0.428327,0.40106 -0.625561,0.75094 -0.237653,0.42067 -0.08572,0.96503 0.335841,1.20111 0.698451,0.39022 1.305269,0.40836 1.764305,0.33908 l -0.320252,1.19786 c -0.04764,0.17765 0.05805,0.35999 0.235805,0.40729 0.177654,0.0476 0.359988,-0.0581 0.407297,-0.23579 l 0.32025,-1.19592 c 0.361907,0.28854 0.895666,0.57366 1.690251,0.58205 0.486991,0.004 0.890336,-0.39847 0.886699,-0.88606 -0.0035,-0.39886 -0.09572,-0.68959 -0.179287,-0.95295 0.806766,-0.65989 1.266713,-1.50707 1.266713,-1.50707 0.003,-0.009 0.0056,-0.0181 0.0078,-0.0273 0.128994,-0.51988 -0.246978,-1.04321 -0.780816,-1.08743 -0.0082,-0.001 -0.01642,-0.002 -0.02469,-0.003 0,0 -0.384594,0.017 -0.711959,0.0344 0.05339,-0.69477 0.06048,-1.3628 -0.311807,-2.0209 -0.221653,-0.42176 -0.810684,-0.49353 -1.16153,-0.32017 -0.681196,0.36924 -0.980243,0.96108 -1.295946,1.60061 z m -4.3185158,7.842 -0.6216643,-3.47666 1.485629,-1.96176 c 0.1824529,-0.20477 0.1965821,-0.49956 0.083799,-0.70936 -0.1127835,-0.20979 -0.3671158,-0.36075 -0.6385538,-0.32156 l -1.3699992,0.53788 -0.4982423,-2.64454 C 7.0884392,275.61046 6.752228,275.40655 6.4324765,275.40655 l 3.4e-6,3e-5 c -0.3197516,0 -0.6579107,0.20391 -0.7782168,0.55735 l -0.4956386,2.64649 -1.2939967,-0.52033 c -0.024476,-0.009 -0.049987,-0.016 -0.076002,-0.0195 -0.271438,-0.0392 -0.5283682,0.11175 -0.6411521,0.32156 -0.1127835,0.2098 -0.096057,0.50459 0.086397,0.70936 l 1.482379,1.96176 -0.6184162,3.47666 -1.4609432,-0.73145 c -0.013446,-0.007 -0.027336,-0.0126 -0.041574,-0.0175 -0.3233708,-0.10974 -0.6604066,0.0366 -0.8223895,0.27738 -0.1619829,0.24082 -0.1722027,0.60905 0.051318,0.86721 l 1.8981218,2.53083 -1.1575815,7.23067 h 1.7084363 c 0.2894542,-0.71619 0.4152405,-1.39404 0.3722188,-2.58541 -0.00621,-0.18274 0.1362555,-0.33623 0.3189522,-0.34362 0.1847195,-0.008 0.34025,0.13676 0.3462349,0.32154 0.040699,1.12708 -0.08161,1.889 -0.3338927,2.60749 h 1.1978567 v -4.59135 c -7.268e-4,-0.18471 0.1491874,-0.33462 0.3338927,-0.3339 0.1839438,3.6e-4 0.3326668,0.14996 0.331944,0.3339 v 4.59135 h 1.2459274 c -0.290905,-0.95229 -0.4230956,-2.02722 -0.3793649,-3.23824 0.0058,-0.17613 0.1479744,-0.31717 0.3241491,-0.32155 0.00649,-1.9e-4 0.012993,-1.9e-4 0.019487,0 0.1847801,0.006 0.3292212,0.1615 0.3215502,0.34622 -0.044659,1.23675 0.104541,2.29709 0.4150924,3.21357 H 10.30018 l -1.1569316,-7.23067 1.8955236,-2.53083 c 0.22352,-0.25816 0.215899,-0.62639 0.05392,-0.86721 -0.161983,-0.24081 -0.501617,-0.38712 -0.824988,-0.27738 z m 6.2114368,-7.02217 c 0.03632,-0.003 0.07261,10e-4 0.107829,0.0101 0.17675,0.0484 0.281024,0.23038 0.233206,0.4073 l -0.960104,3.58446 -0.32155,-0.0857 -0.32155,-0.0857 0.962701,-3.58448 c 0.03698,-0.13753 0.157355,-0.23675 0.299465,-0.24555 z m 2.550929,9.16146 c -0.483661,-1.09885 -1.110287,-1.99408 -2.209928,-2.64191 -0.697181,-0.35391 -1.258797,-0.20893 -1.612918,0.42214 -0.678299,1.10511 -0.702881,2.16632 -0.598929,3.40519 l -1.274504,-0.0581 c -0.742671,0.0614 -1.262481,0.78342 -1.084826,1.50707 0.0021,0.009 0.0043,0.0183 0.0071,0.0273 0,0 0.56379,1.43305 2.074811,2.50419 -0.137217,0.42972 -0.282199,0.92536 -0.275428,1.58372 0.0063,0.67247 0.565045,1.21905 1.237482,1.21021 1.425149,-0.0201 2.321292,-0.59788 2.880962,-1.10432 l 0.603475,2.24825 c 0.0473,0.17775 0.229643,0.28344 0.407297,0.2358 0.177745,-0.0473 0.28345,-0.23028 0.235805,-0.40794 l -0.602872,-2.24754 c 0.735821,0.15913 1.797573,0.20964 3.031019,-0.48525 0.591064,-0.33362 0.795193,-1.09658 0.45147,-1.68181 -0.331699,-0.56294 -0.705209,-0.91139 -1.038705,-1.21019 0.770837,-1.68074 0.542413,-3.19926 0.542413,-3.19926 -0.0012,-0.0101 -0.0025,-0.0196 -0.0045,-0.0293 -0.206521,-0.71715 -1.021831,-1.08442 -1.696748,-0.76587 z m -1.672023,1.24581 0.45147,1.68182 0.940617,-0.97311 c 0.05846,-0.0603 0.137603,-0.0969 0.221511,-0.10068 0.09189,-0.005 0.181489,0.0294 0.247496,0.0935 0.121282,0.07 0.148327,0.33104 0.0078,0.47157 l -1.216045,1.25762 0.758729,2.82899 -0.643101,0.17215 -0.413794,-1.54345 -1.685053,-0.48135 c -0.177383,-0.0504 -0.279958,-0.23538 -0.228658,-0.41249 0.04079,-0.15222 0.226109,-0.27789 0.412483,-0.22795 l 1.301143,0.37352 -0.187734,-0.69962 c -0.0028,-0.009 -0.0052,-0.0179 -0.0072,-0.0267 l -0.600227,-2.23982 c -0.04764,-0.17681 0.05659,-0.3589 0.233205,-0.40729 0.203538,-0.0413 0.362504,0.0659 0.407358,0.23329 z m -10.8813986,2.18059 c 0.183689,-7.2e-4 0.3331796,0.14761 0.3338927,0.3313 v 0.33389 c -3.602e-4,0.18394 -0.1499544,0.33266 -0.3338927,0.33194 -0.182924,-7.1e-4 -0.3309361,-0.14901 -0.3312943,-0.33194 v -0.33389 c 7.092e-4,-0.18268 0.1486192,-0.33059 0.3312943,-0.3313 z m -3.0342667,5.25654 c -0.1839163,3.6e-4 -0.3326278,0.14991 -0.3319439,0.33383 7.167e-4,0.18292 0.149019,0.33093 0.3319439,0.33129 h 8.8553043 c 0.182925,-3.6e-4 0.331226,-0.14837 0.331943,-0.33129 7.17e-4,-0.18394 -0.148004,-0.33353 -0.331944,-0.33389 -2.9517677,2e-4 -5.9035356,-3e-4 -8.8553033,6e-5 z"
       style="color:#000000;font-style:normal;font-variant:normal;font-weight:normal;font-stretch:normal;font-size:medium;line-height:normal;font-family:sans-serif;font-variant-ligatures:normal;font-variant-position:normal;font-variant-caps:normal;font-variant-numeric:normal;font-variant-alternates:normal;font-variant-east-asian:normal;font-feature-settings:normal;font-variation-settings:normal;text-indent:0;text-align:start;text-decoration:none;text-decoration-line:none;text-decoration-style:solid;text-decoration-color:#000000;letter-spacing:normal;word-spacing:normal;text-transform:none;writing-mode:lr-tb;direction:ltr;text-orientation:mixed;dominant-baseline:auto;baseline-shift:baseline;text-anchor:start;white-space:normal;shape-padding:0;shape-margin:0;inline-size:0;clip-rule:nonzero;display:inline;overflow:visible;visibility:visible;opacity:1;isolation:auto;mix-blend-mode:normal;color-interpolation:sRGB;color-interpolation-filters:linearRGB;solid-color:#000000;solid-opacity:1;vector-effect:none;fill:#000000;fill-opacity:1;fill-rule:nonzero;stroke:none;stroke-width:0.529168;stroke-linecap:round;stroke-linejoin:round;stroke-miterlimit:4;stroke-dasharray:none;stroke-dashoffset:0;stroke-opacity:1;color-rendering:auto;image-rendering:auto;shape-rendering:auto;text-rendering:auto;enable-background:accumulate;stop-color:#000000"
       id="path571"
       sodipodi:nodetypes="ccccccccccccccccccccccccccccccccccccccccccccccccccccccccccccccccccccccccccccccccccccccccccccccccccccccccccccccccccccccsccsccsccccscc" />
  </g>
</svg>
